<?xml version="1.0" encoding="UTF-8" standalone="no"?>
<!-- Created with Inkscape (http://www.inkscape.org/) -->

<svg
   xmlns:dc="http://purl.org/dc/elements/1.1/"
   xmlns:cc="http://creativecommons.org/ns#"
   xmlns:rdf="http://www.w3.org/1999/02/22-rdf-syntax-ns#"
   xmlns:svg="http://www.w3.org/2000/svg"
   xmlns="http://www.w3.org/2000/svg"
   xmlns:sodipodi="http://sodipodi.sourceforge.net/DTD/sodipodi-0.dtd"
   xmlns:inkscape="http://www.inkscape.org/namespaces/inkscape"
   width="1772"
   height="447"
   viewBox="0 0 468.84168 118.26875"
   version="1.1"
   id="svg8"
   inkscape:version="0.92.3 (2405546, 2018-03-11)"
   sodipodi:docname="csharpislogo.svg">
  <defs
     id="defs2" />
  <sodipodi:namedview
     id="base"
     pagecolor="#EDF2F4"
     bordercolor="#666666"
     borderopacity="1.0"
     inkscape:pageopacity="0.0"
     inkscape:pageshadow="2"
     inkscape:zoom="0.5"
     inkscape:cx="826.39883"
     inkscape:cy="159"
     inkscape:document-units="mm"
     inkscape:current-layer="layer1"
     showgrid="false"
     showguides="true"
     inkscape:measure-start="362,0"
     inkscape:measure-end="552,447"
     units="px"
     inkscape:pagecheckerboard="true"
     inkscape:showpageshadow="false"
     borderlayer="false"
     inkscape:window-width="1920"
     inkscape:window-height="1051"
     inkscape:window-x="1920"
     inkscape:window-y="0"
     inkscape:window-maximized="0" />
  <metadata
     id="metadata5">
    <rdf:RDF>
      <cc:Work
         rdf:about="">
        <dc:format>image/svg+xml</dc:format>
        <dc:type
           rdf:resource="http://purl.org/dc/dcmitype/StillImage" />
        <dc:title></dc:title>
      </cc:Work>
    </rdf:RDF>
  </metadata>
  <g
     inkscape:label="Layer 1"
     inkscape:groupmode="layer"
     id="layer1"
     transform="translate(0,-178.73126)">
    <rect
       style="fill:#EDF2F4;fill-opacity:1;stroke:none;stroke-width:0.43523288;stroke-opacity:1"
       id="rect991"
       width="468.84167"
       height="118.26875"
       x="4.4408921e-16"
       y="178.73126" />
    <path
       style="fill:#2b2d42;fill-opacity:1;fill-rule:evenodd;stroke:none;stroke-width:0.99999994px;stroke-linecap:butt;stroke-linejoin:miter;stroke-opacity:1"
       d="M 201.53516 0 C 85.724519 33.751962 29.571772 135.29145 33.162109 231.03125 C 36.170099 353.35029 118.41792 421.76746 197.33594 447 L 362 447 L 366.91211 447 L 1772 447 L 1772 0 L 552 0 L 415.98047 320.00195 L 394.66797 300.78125 C 335.58409 388.1154 159.51312 373.8404 161.41602 221.7832 C 163.30638 70.727024 344.25077 64.1154 394.16797 147.78125 L 475.66797 72.78125 C 437.37053 31.256765 400.42781 10.614116 363.90234 0 L 201.53516 0 z "
       transform="matrix(0.26458333,0,0,0.26458333,0,178.73126)"
       id="path862" />
    <path
       style="fill:#EDF2F4;fill-opacity:1;fill-rule:evenodd;stroke:none;stroke-width:0.26458332px;stroke-linecap:butt;stroke-linejoin:miter;stroke-opacity:1"
       d="m 166.60274,226.06533 -7.63205,24.5232 20.37261,-0.094 7.67851,-24.45603 -20.41907,0.0269 m -23.86003,-0.10591 -7.60677,24.47396 h -24.20938 l -4.29948,21.96042 21.29896,0.0661 -7.67292,24.60625 23.74636,-0.0661 7.67291,-24.60625 20.6375,0.0661 -7.73906,24.60625 23.74636,-0.0661 7.67291,-24.47396 23.87865,-0.13229 4.29948,-22.02656 -21.03438,0.0661 7.80521,-24.67239 24.20937,0.0661 4.29948,-22.02656 -21.49739,0.13229 8.00364,-25.20156 h -23.8125 l -7.87135,25.26771 -20.57135,-0.0662 7.9375,-25.20156 -23.74636,9e-5 -7.9375,25.20156 -23.8125,-0.0661 -4.36562,22.0927 h 20.96823"
       id="path901"
       inkscape:connector-curvature="0"
       sodipodi:nodetypes="cccccccccccccccccccccccccccccccccc" />
    <path
       style="font-style:normal;font-variant:normal;font-weight:bold;font-stretch:normal;font-size:46.03749847px;line-height:6.61458302px;font-family:Montserrat;-inkscape-font-specification:'Montserrat Bold';letter-spacing:-2.4473958px;word-spacing:0px;fill:#EDF2F4;fill-opacity:1;stroke:none;stroke-width:0.99999994px;stroke-linecap:butt;stroke-linejoin:miter;stroke-opacity:1"
       d="M 1582.5547 154.15234 C 1572.4627 154.15234 1565.6777 160.76504 1565.6777 169.29102 C 1565.6777 177.81703 1572.4627 184.42969 1582.5547 184.42969 C 1592.6467 184.42969 1599.4336 177.81753 1599.4336 168.76953 C 1599.4336 160.41753 1592.6467 154.15234 1582.5547 154.15234 z M 1143.8711 161.98242 L 1143.8711 291.08984 L 1171.0137 291.08984 L 1171.0137 244.80664 C 1171.0137 227.58065 1180.4109 219.57617 1193.4609 219.57617 C 1205.4669 219.57617 1212.4258 226.53584 1212.4258 241.67383 L 1212.4258 291.08984 L 1239.5703 291.08984 L 1239.5703 237.49805 C 1239.5703 208.96205 1222.8656 196.08594 1200.7676 196.08594 C 1188.7616 196.08594 1178.3217 199.91464 1171.0137 207.22266 L 1171.0137 161.98242 L 1143.8711 161.98242 z M 1012.1992 196.08594 C 981.74923 196.08594 960 216.09714 960 244.28516 C 960 272.47314 981.74923 292.48242 1012.1992 292.48242 C 1031.8612 292.48242 1047.3488 283.78238 1054.1348 268.81836 L 1033.0801 257.33398 C 1028.0341 266.38198 1020.5514 270.21094 1012.0254 270.21094 C 998.27936 270.21094 987.49219 260.64114 987.49219 244.28516 C 987.49219 227.92914 998.27936 218.35938 1012.0254 218.35938 C 1020.5514 218.35938 1028.0341 222.36038 1033.0801 231.23438 L 1054.1348 219.92383 C 1047.3488 204.61183 1031.8612 196.08594 1012.1992 196.08594 z M 1097.2227 196.08594 C 1069.9046 196.08594 1053.8965 208.6153 1053.8965 226.36328 C 1053.8965 263.77331 1110.4473 248.11183 1110.4473 263.42383 C 1110.4473 268.64385 1105.7487 271.95117 1093.2207 271.95117 C 1081.7367 271.95117 1069.0356 268.29633 1060.6836 262.90234 L 1051.6348 282.39062 C 1060.3347 288.13263 1076.3418 292.48242 1092.1758 292.48242 C 1120.1898 292.48242 1136.373 280.12852 1136.373 262.72852 C 1136.373 225.84052 1079.8223 241.32636 1079.8223 225.31836 C 1079.8223 220.44636 1085.0427 216.61914 1097.2227 216.61914 C 1105.7487 216.61914 1114.9714 218.35814 1124.1934 223.57812 L 1133.2402 204.26562 C 1124.3662 199.04564 1110.0987 196.08594 1097.2227 196.08594 z M 1292.6836 196.08594 C 1277.7196 196.08594 1262.5804 200.08847 1252.3145 207.39648 L 1262.0586 226.36328 C 1268.8446 220.96929 1279.1113 217.66211 1289.0293 217.66211 C 1303.6453 217.66211 1310.6055 224.44943 1310.6055 236.10742 L 1289.0293 236.10742 C 1260.4933 236.10742 1248.834 247.5911 1248.834 264.12109 C 1248.834 280.3031 1261.8846 292.48242 1283.8086 292.48242 C 1297.5546 292.48242 1307.2997 287.9596 1312.3457 279.43359 L 1312.3457 291.08984 L 1337.748 291.08984 L 1337.748 237.67188 C 1337.748 209.30988 1321.2196 196.08594 1292.6836 196.08594 z M 1411.1816 196.08594 C 1396.7396 196.08594 1385.6042 200.78403 1378.9922 209.83203 L 1378.9922 197.47852 L 1353.0645 197.47852 L 1353.0645 291.08984 L 1380.209 291.08984 L 1380.209 246.89453 C 1380.209 228.97254 1390.1278 220.79492 1405.0918 220.79492 C 1407.1798 220.79492 1408.9196 220.96834 1411.1816 221.14258 L 1411.1816 196.08594 z M 1473.5723 196.08594 C 1461.0443 196.08594 1450.954 200.08959 1444.168 208.26758 L 1444.168 197.47852 L 1418.2402 197.47852 L 1418.2402 324.84766 L 1445.3848 324.84766 L 1445.3848 281.17188 C 1452.3448 288.82788 1461.9143 292.48242 1473.5723 292.48242 C 1499.8463 292.48242 1520.2051 273.69113 1520.2051 244.28516 C 1520.2051 214.87915 1499.8463 196.08594 1473.5723 196.08594 z M 1648.6094 196.08594 C 1621.2914 196.08594 1605.2832 208.6153 1605.2832 226.36328 C 1605.2832 263.77331 1661.834 248.11183 1661.834 263.42383 C 1661.834 268.64385 1657.1354 271.95117 1644.6074 271.95117 C 1633.1234 271.95117 1620.4204 268.29633 1612.0684 262.90234 L 1603.0215 282.39062 C 1611.7215 288.13263 1627.7285 292.48242 1643.5625 292.48242 C 1671.5765 292.48242 1687.7598 280.12852 1687.7598 262.72852 C 1687.7598 225.84052 1631.209 241.32636 1631.209 225.31836 C 1631.209 220.44636 1636.4294 216.61914 1648.6094 216.61914 C 1657.1354 216.61914 1666.3581 218.35814 1675.5801 223.57812 L 1684.627 204.26562 C 1675.753 199.04564 1661.4854 196.08594 1648.6094 196.08594 z M 1568.9844 197.47852 L 1568.9844 291.08984 L 1596.127 291.08984 L 1596.127 197.47852 L 1568.9844 197.47852 z M 1468.875 218.35938 C 1482.447 218.35938 1492.7129 228.10315 1492.7129 244.28516 C 1492.7129 260.46713 1482.447 270.21094 1468.875 270.21094 C 1455.303 270.21094 1445.0371 260.46713 1445.0371 244.28516 C 1445.0371 228.10315 1455.303 218.35938 1468.875 218.35938 z M 1291.9863 251.94141 L 1310.6055 251.94141 L 1310.6055 261.51172 C 1307.4735 270.03773 1299.6437 274.21289 1290.5957 274.21289 C 1281.0257 274.21289 1275.2832 269.68833 1275.2832 262.90234 C 1275.2832 256.63834 1279.2843 251.94141 1291.9863 251.94141 z "
       transform="matrix(0.26458333,0,0,0.26458333,0,178.73126)"
       id="path926" />
  </g>
</svg>
